<svg id="Performance_managment" xmlns="http://www.w3.org/2000/svg" viewBox="0 0 117 117"><style>.st0{opacity:0;fill:#25272e}.st1{fill:#494963}.st2{fill:url(#icon_1_)}</style><g id="Rectangle_1845_copy_3"><path transform="rotate(-45.001 58.5 58.501)" class="st0" d="M18.8 18.8h79.3v79.3H18.8z"/><path class="st1" d="M58.5 3.8l54.7 54.7-54.7 54.7L3.8 58.5 58.5 3.8m0-2.8L1 58.5 58.5 116 116 58.5 58.5 1z"/></g><linearGradient id="icon_1_" gradientUnits="userSpaceOnUse" x1="44.043" y1="58.482" x2="72.989" y2="58.482"><stop offset="0" stop-color="#6899f8"/><stop offset="1" stop-color="#8975d9"/></linearGradient><path id="icon" class="st2" d="M57.8 44c-.3.1-.6.3-.6.6v.2l-.7 2.7c-.3.1-.6.1-.9.2-.4.1-.7.2-1 .4l-2.3-2c-.3-.2-.6-.3-.9-.1-.9.5-1.8 1.2-2.6 1.9-.3.2-.3.6-.2.9l1.3 2.7c-.4.5-.8 1.1-1.1 1.6l-3.2-.1c-.4 0-.7.2-.8.6-.4 1-.6 2-.8 3.1 0 .4.1.7.5.9l2.7 1.3c0 .7.1 1.3.2 1.9L45 62.6c-.3.2-.4.6-.3.9.4 1 .8 1.9 1.4 2.8.2.3.5.4.9.4l2.9-.8c.4.5.9.9 1.4 1.4l-.6 3c-.1.3.1.7.4.9.9.5 1.9 1 2.9 1.3.3.1.7 0 .9-.3l1.7-2.5c.7.1 1.3.1 2 .1l1.4 2.7c.2.3.5.5.9.4.5-.1.9-.2 1.3-.3.6-.2 1.1-.3 1.7-.6.3-.1.6-.5.5-.8l-.3-3.4c0-.4-.4-.8-.9-.7-.4 0-.8.4-.7.9l.2 2.8c-.3.1-.6.2-1 .3-.2.1-.4.1-.6.1l-1.4-2.6c-.2-.3-.5-.4-.8-.4-.9 0-1.8 0-2.6-.2-.3-.1-.7.1-.9.3l-1.6 2.3c-.5-.2-1-.4-1.5-.7l.6-2.8c.1-.3-.1-.6-.3-.8-.7-.5-1.3-1.2-1.9-1.9-.2-.3-.5-.4-.9-.3l-2.7.7c-.3-.5-.5-1-.7-1.5l2.2-1.8c.2-.2.4-.5.3-.8-.2-.9-.3-1.7-.3-2.6 0-.3-.2-.6-.5-.7l-2.5-1.2c.1-.6.3-1.1.4-1.6l2.9.1c.3 0 .6-.2.7-.4.4-.8.9-1.5 1.5-2.2.2-.2.3-.6.1-.9L50 48.7c.4-.4.9-.7 1.4-1l2.1 1.9c.2.2.6.3.9.1.4-.2.9-.3 1.3-.4l1.2-.3c.3 0 .6-.3.6-.6l.7-2.7c.6 0 1.1 0 1.6.1l.4 2.9c0 .3.3.6.6.6.8.3 1.7.6 2.4 1.1.3.2.6.2.9 0l2.3-1.6 1.2 1.2-1.5 2.4c-.2.3-.2.6 0 .9.5.7.9 1.5 1.1 2.4.1.3.4.5.7.6l2.8.2c.1.6.2 1.1.2 1.7l-2.3.8c-.3.1-.5.4-.5.7-.1.9-.3 1.8-.7 2.6-.1.3 0 .7.2.9l2.4 2.4c.3.3.8.3 1.1 0s.3-.8 0-1.1L69 62.3c.2-.6.4-1.3.5-1.9l2.9-1c.3-.1.6-.4.6-.7 0-1.1-.1-2.1-.3-3.2-.1-.3-.4-.6-.7-.6l-3-.3c-.2-.6-.5-1.2-.9-1.8l1.6-2.6c.2-.3.2-.7-.1-.9-.7-.8-1.5-1.5-2.3-2.2-.3-.2-.7-.2-1 0l-2.5 1.7c-.6-.3-1.1-.6-1.8-.8l-.3-3c0-.3-.3-.6-.7-.7-1-.2-2-.3-3.2-.3zm1.4 9.4c-.7-.1-1.4-.1-2.1.1-2.9.8-4.6 3.8-3.8 6.6.8 2.9 3.7 4.6 6.6 3.8.4-.1.7-.5.6-1-.1-.4-.5-.7-1-.6h-.1c-2 .5-4.1-.7-4.7-2.7-.5-2 .7-4.1 2.7-4.7 2-.5 4.1.7 4.7 2.7.3.9.1 1.9-.3 2.8-.2.4-.1.9.3 1.1s.9.1 1.1-.3c1.4-2.6.4-5.9-2.2-7.4-.5-.1-1.1-.3-1.8-.4z"/></svg>