<svg id="Analytics_reporting" xmlns="http://www.w3.org/2000/svg" viewBox="0 0 117 117"><style>.st0{opacity:0;fill:#25272e}.st1{fill:#494963}.st2{fill:url(#Icon_1_)}</style><g id="Rectangle_1845_copy_2"><path transform="rotate(-45.001 58.5 58.501)" class="st0" d="M18.8 18.8h79.3v79.3H18.8z"/><path class="st1" d="M58.5 3.8l54.7 54.7-54.7 54.7L3.8 58.5 58.5 3.8m0-2.8L1 58.5 58.5 116 116 58.5 58.5 1z"/></g><linearGradient id="Icon_1_" gradientUnits="userSpaceOnUse" x1="42" y1="59.531" x2="75" y2="59.531" gradientTransform="matrix(1 0 0 -1 0 118)"><stop offset="0" stop-color="#6899f8"/><stop offset="1" stop-color="#8975d9"/></linearGradient><path id="Icon" class="st2" d="M59.6 66.9c-.4 0-.8-.3-1-.7l-4-12.1-2.1 6.1c-.1.4-.5.7-.9.7H43c-.6 0-1-.5-1-1s.5-1 1-1h7.8l2.9-8.2c.2-.5.7-.8 1.3-.6.3.1.5.3.6.6l4 12.2 3.4-9c.1-.4.5-.6.9-.7.4 0 .8.3.9.6l1.9 4.9H74c.6 0 1 .5 1 1 0 .6-.5 1-1 1h-7.9c-.4 0-.8-.3-.9-.6L64 57l-3.4 9.2c-.2.5-.6.7-1 .7z"/></svg>