<svg id="Analytics_reporting_hover" xmlns="http://www.w3.org/2000/svg" viewBox="0 0 117 117"><style>.st0{fill:url(#Rectangle_1845_copy_2_1_)}.st1{fill:#fff}</style><linearGradient id="Rectangle_1845_copy_2_1_" gradientUnits="userSpaceOnUse" x1="1" y1="58.5" x2="116" y2="58.5"><stop offset="0" stop-color="#6899f8"/><stop offset="1" stop-color="#8975d9"/></linearGradient><path id="Rectangle_1845_copy_2" class="st0" d="M58.5 1L116 58.5 58.5 116 1 58.5 58.5 1z"/><path id="Icon" class="st1" d="M59.6 66.9c-.4 0-.8-.3-1-.7l-4-12.1-2.1 6.1c-.1.4-.5.7-.9.7H43c-.6 0-1-.5-1-1s.5-1 1-1h7.8l2.9-8.2c.2-.5.7-.8 1.3-.6.3.1.5.3.6.6l4 12.2 3.4-9c.1-.4.5-.6.9-.7.4 0 .8.3.9.6l1.9 4.9H74c.6 0 1 .5 1 1 0 .6-.5 1-1 1h-7.9c-.4 0-.8-.3-.9-.6L64 57l-3.4 9.2c-.2.5-.6.7-1 .7z"/></svg>