<svg id="Inegration" xmlns="http://www.w3.org/2000/svg" viewBox="0 0 117 117"><style>.st0{opacity:0;fill:#25272e}.st1{fill:#494963}.st2{fill:url(#icon_1_)}</style><g id="Rectangle_1845_copy"><path transform="rotate(-45.001 58.5 58.501)" class="st0" d="M18.8 18.8h79.3v79.3H18.8z"/><path class="st1" d="M58.5 3.8l54.7 54.7-54.7 54.7L3.8 58.5 58.5 3.8m0-2.8L1 58.5 58.5 116 116 58.5 58.5 1z"/></g><linearGradient id="icon_1_" gradientUnits="userSpaceOnUse" x1="45.86" y1="59" x2="70.82" y2="59" gradientTransform="matrix(1 0 0 -1 0 118)"><stop offset="0" stop-color="#6899f8"/><stop offset="1" stop-color="#8975d9"/></linearGradient><path id="icon" class="st2" d="M58.3 46.4l10.4 6.8c-.4 11.8-7.9 17.1-10.4 18.5-2.7-1.5-10-6.8-10.4-18.5l10.4-6.8m0-2.4l-12.5 8.2C45.9 68.6 58.3 74 58.3 74s12.5-5.4 12.5-21.8L58.3 44zm0 5.7l-7.7 5.1c.4 8.5 5.5 12.4 7.7 13.8V49.7z"/></svg>