<svg id="Layer_1" xmlns="http://www.w3.org/2000/svg" height="90" width="90" viewBox="0 0 90 89"><style>.st0{fill:url(#SVGID_1_)}.st1{fill:url(#SVGID_2_)}.st2{fill:url(#SVGID_3_)}.st3{fill:url(#SVGID_4_)}.st4{fill:url(#SVGID_5_)}</style><linearGradient id="SVGID_1_" gradientUnits="userSpaceOnUse" x1="23.735" y1="27" x2="28.735" y2="27" gradientTransform="translate(0 40)"><stop offset="0" stop-color="#6899f8"/><stop offset="1" stop-color="#8975d9"/></linearGradient><path class="st0" d="M24.7 66c-.6 0-1 .4-1 1s.4 1 1 1h3c.6 0 1-.4 1-1s-.4-1-1-1h-3z"/><linearGradient id="SVGID_2_" gradientUnits="userSpaceOnUse" x1=".7" y1="-3.5" x2="51.46" y2="-3.5" gradientTransform="translate(0 40)"><stop offset="0" stop-color="#6899f8"/><stop offset="1" stop-color="#8975d9"/></linearGradient><path class="st1" d="M40.7 71.9c0-.5-.4-.9-.9-.9h-37c0-.1-.1-.2-.1-.2V63.6c.8-3.3 1.9-5.6 4.9-6.7l13.2-4.5c3.4-1.4 5-6.6 5.4-9.1l.1-.5-.3-.4c-1.9-1.7-4.1-4.6-4.1-7.3 0-1.8-.7-2.3-1-2.4l-.2-.1c-.1 0-.1 0-.2-.2-.8-1.9-1.3-4-1.6-6.1v-.1c.2-.6.5-1.2 1-1.6l.4-.3-.1-8.4C20.2 10.1 25.5 2 34 2c3.9 0 6.7.8 8.6 2.4 1.2.9 2 2.2 2.3 3.6l.1.4.4.3c1.2.9 2.6 2.5 2.6 7v8.4l.4.3c.5.4.9.9 1 1.6v.1c-.2 2.1-.7 4.2-1.5 6.1-.1.1-.2.3-.3.3l-.2.1-.2.2c-.5.6-.8 1.4-.7 2.3 0 .7-.1 1.4-.4 2-.1.5.1 1 .6 1.2s1.1 0 1.3-.5c.3-.9.5-1.8.5-2.7 0-.2 0-.5.1-.7.6-.3 1-.7 1.2-1.3.9-2.2 1.5-4.5 1.6-6.8 0-.2 0-.4-.1-.6-.2-.9-.7-1.7-1.4-2.4v-7.4c0-4-1-6.7-3.1-8.4-.4-1.8-1.5-3.4-2.9-4.5C41.6 1 38.4.1 34 0c-9.8.1-15.8 9.3-15.8 15.9v7.4c-.7.7-1.2 1.5-1.4 2.4 0 .2-.1.4-.1.6.2 2.4.8 4.7 1.7 6.8.2.6.7 1.1 1.2 1.3.1.2.1.5.1.7 0 3.1 2.2 6.3 4.4 8.3-.5 2.4-1.9 6.2-4.1 7.1L7 55c-4.1 1.4-5.4 4.9-6.2 8.1-.1.2-.1.4-.1.6v7.1c0 .7.3 1.3.7 1.8.5.2.9.4 1.3.4h37.1c.5 0 .9-.4.9-.9v-.2z"/><linearGradient id="SVGID_3_" gradientUnits="userSpaceOnUse" x1="43.755" y1="17.5" x2="71.295" y2="17.5" gradientTransform="translate(0 40)"><stop offset="0" stop-color="#6899f8"/><stop offset="1" stop-color="#8975d9"/></linearGradient><path class="st2" d="M59.3 43.8c-9-1.2-16.6 6.5-15.5 15.5.8 6.1 5.7 11.1 11.9 11.9 9 1.2 16.6-6.5 15.5-15.5-.8-6.1-5.8-11.1-11.9-11.9zM59 69.2c-7.7 1-14.2-5.5-13.2-13.2.7-5.3 4.9-9.5 10.2-10.2 7.7-1 14.2 5.5 13.2 13.2-.7 5.3-4.9 9.5-10.2 10.2z"/><linearGradient id="SVGID_4_" gradientUnits="userSpaceOnUse" x1="5.735" y1="27" x2="21.735" y2="27" gradientTransform="translate(0 40)"><stop offset="0" stop-color="#6899f8"/><stop offset="1" stop-color="#8975d9"/></linearGradient><path class="st3" d="M6.7 66c-.6 0-1 .4-1 1s.4 1 1 1h14c.6 0 1-.4 1-1s-.4-1-1-1h-14z"/><linearGradient id="SVGID_5_" gradientUnits="userSpaceOnUse" x1="39.3" y1="24.2" x2="89.225" y2="24.2" gradientTransform="translate(0 40)"><stop offset="0" stop-color="#6899f8"/><stop offset="1" stop-color="#8975d9"/></linearGradient><path class="st4" d="M87.8 80.5L76.3 69l-1.1 1.1-2.5-2.5c1.9-2.9 3.1-6.4 3.1-10.1 0-10.1-8.2-18.2-18.2-18.2-12.8 0-22.5 13.2-16.4 26.5 2.3 5 7 8.6 12.4 9.6 5.3 1 10.2-.1 14.1-2.7l2.5 2.5-1 1 11.4 11.4c.9.9 2.2 1.5 3.6 1.5 1.3 0 2.6-.5 3.6-1.5 1.9-2 1.9-5.2 0-7.1zm-13.2-6.9l1.8-1.8 8.4 8.4-4.3 4.3-8.5-8.4 2.6-2.5zM41.4 59.2c-1.1-10.6 8-19.4 18.6-17.8 7.2 1.1 12.9 7.1 13.7 14.4 1.1 10.6-8.1 19.5-18.7 17.9-7.2-1.2-12.9-7.2-13.6-14.5zm30.2 14.5L69.8 72l2.2-2.2 1.8 1.8-1.2 1.2-1 .9zm14.8 12.4c-1.2 1.2-3.1 1.2-4.3 0l-.2-.2 4.3-4.3.2.2c1.1 1.2 1.1 3.1 0 4.3z"/></svg>