<svg id="icon-linkedin" xmlns="http://www.w3.org/2000/svg" viewBox="0 0 50 50"><style>.st0{fill:#fff;fill-opacity:0;stroke:#494963;stroke-linejoin:round}.st1{fill:url(#Linkedin_1_)}</style><path class="st0" d="M25 0l25 25-25 25L0 25 25 0z"/><linearGradient id="Linkedin_1_" gradientUnits="userSpaceOnUse" x1="17.998" y1="24.998" x2="32" y2="24.998"><stop offset="0" stop-color="#6899f8"/><stop offset="1" stop-color="#8975d9"/></linearGradient><path id="Linkedin" class="st1" d="M18 32h3.1v-9.3H18V32zm10.3-9.6c-1.2-.1-2.3.5-2.9 1.6v-1.5l-2.7.2V32h2.7v-5.1c0-.3 0-.5.1-.8.3-.6.9-1.1 1.6-1.2 1.6-.3 2.4 1 2.2 2.4V32H32v-5.3c0-2.9-1.6-4.3-3.7-4.3zM19.8 18c-.9-.1-1.7.6-1.8 1.5s.6 1.7 1.5 1.8h.2c.9.1 1.7-.6 1.8-1.5.1-.9-.6-1.7-1.5-1.8h-.2z"/></svg>