<svg id="icon-gplus" xmlns="http://www.w3.org/2000/svg" viewBox="0 0 50 50"><style>.st0{fill:#fff;fill-opacity:0;stroke:#494963;stroke-linejoin:round}.st1{fill:url(#G__1_)}</style><path class="st0" d="M25 0l25 25-25 25L0 25 25 0z"/><linearGradient id="G__1_" gradientUnits="userSpaceOnUse" x1="16.002" y1="25.406" x2="34" y2="25.406"><stop offset="0" stop-color="#6899f8"/><stop offset="1" stop-color="#8975d9"/></linearGradient><path id="G_" class="st1" d="M21.7 24.7v1.9H25c-.3 1.5-1.7 2.5-3.2 2.4-1.9 0-3.5-1.5-3.6-3.4 0-1.9 1.5-3.5 3.4-3.6h.2c.8 0 1.7.3 2.3.9l1.6-1.4c-2.2-2.2-5.7-2.2-7.9 0s-2.2 5.7 0 7.9c1.1 1.1 2.6 1.7 4.1 1.6 2.9.2 5.3-2 5.5-4.8v-.5c0-.3 0-.6-.1-.9l-5.6-.1zm12.3 0h-1.6v-1.6h-1.6v1.6h-1.6v1.6h1.6v1.6h1.6v-1.6H34"/></svg>