<svg id="icon-fb" xmlns="http://www.w3.org/2000/svg" viewBox="0 0 50 50"><style>.st0{opacity:0;fill:#fff}.st1{fill:#494963}.st2{fill:url(#fb_1_)}</style><path transform="rotate(-45.001 25 25)" class="st0" d="M7.8 7.8h34.3v34.3H7.8z"/><path class="st1" d="M25 1.4L48.6 25 25 48.6 1.4 25 25 1.4M25 0L0 25l25 25 25-25L25 0z"/><linearGradient id="fb_1_" gradientUnits="userSpaceOnUse" x1="21" y1="25" x2="29" y2="25"><stop offset="0" stop-color="#6899f8"/><stop offset="1" stop-color="#8975d9"/></linearGradient><path id="fb" class="st2" d="M25.8 33v-7.2h2.4v-2.4h-2.4V21c-.1-.8.5-1.5 1.4-1.6H29v-2.3c-.7-.1-1.4-.1-2.1-.1-2.1 0-3.5 1.3-3.5 3.8v2.6H21v2.4h2.4V33h2.4z"/></svg>