<svg id="Real_time_advertising" xmlns="http://www.w3.org/2000/svg" viewBox="0 0 117 117"><style>.st0{opacity:0;fill:#25272e}.st1{fill:#494963}.st2{fill:url(#SVGID_1_)}</style><g id="Rectangle_1845_copy_4"><path transform="rotate(-45.001 58.5 58.501)" class="st0" d="M18.8 18.8h79.3v79.3H18.8z"/><path class="st1" d="M58.5 3.8l54.7 54.7-54.7 54.7L3.8 58.5 58.5 3.8m0-2.8L1 58.5 58.5 116 116 58.5 58.5 1z"/></g><linearGradient id="SVGID_1_" gradientUnits="userSpaceOnUse" x1="42.8" y1="59.657" x2="72.752" y2="59.657" gradientTransform="matrix(1 0 0 -1 0 118)"><stop offset="0" stop-color="#6899f8"/><stop offset="1" stop-color="#8975d9"/></linearGradient><path class="st2" d="M72.4 54.6c-.4-1.2-1.4-2.1-2.6-2.6v-5.3c0-.7-.4-1.3-1-1.6s-1.4-.3-1.9.1c-5.9 3.9-9.2 4.5-11.4 4.5h-6.8c-3.2 0-5.8 2.5-5.9 5.7v1.8c0 3.2 2.7 5.8 5.9 5.7h2.6l3.3 7.8c.3.7 1 1.1 1.7 1.1.2 0 .5 0 .7-.1.4-.2.8-.5 1-.9.2-.5.2-1 0-1.5L55.3 63h.1c7.8 0 10.9 3.9 11 4.1.4.5.9.7 1.5.7.2 0 .4 0 .6-.1.7-.2 1.2-.9 1.2-1.7v-5.3c2.5-1 3.7-3.7 2.7-6.1zm-4.6-4.3v15.3c-1-1.1-4.8-4.6-12.4-4.6h-6.8c-2.1 0-3.8-1.7-3.9-3.8v-1.8c0-2.1 1.8-3.8 3.9-3.8h4v5.3h2v-5.3h.7c2.5 0 6.2-.5 12.4-4.6l.1 3.3z"/></svg>