<svg id="social_media_advertising_-_hover" xmlns="http://www.w3.org/2000/svg" viewBox="0 0 117 117"><style>.gradient{fill:url(#SVGID_1_)}.st0{fill:url(#Rectangle_1845_copy_5_1_)}.st1{fill:#fff}</style><linearGradient id="SVGID_1_" gradientUnits="userSpaceOnUse" y1="117" x2="1" y2="117"><stop offset="0" stop-color="#6899f8"/><stop offset="1" stop-color="#8975d9"/></linearGradient><linearGradient id="Rectangle_1845_copy_5_1_" gradientUnits="userSpaceOnUse" x1="1" y1="58.5" x2="116" y2="58.5"><stop offset="0" stop-color="#6899f8"/><stop offset="1" stop-color="#8975d9"/></linearGradient><path id="Rectangle_1845_copy_5" class="st0" d="M58.5 1L116 58.5 58.5 116 1 58.5 58.5 1z"/><path id="Icon" class="st1" d="M63.9 62.8c-1 0-2 .3-2.9.9l-7.9-4.8v-.6-.4l8.1-4.9c.8.5 1.7.8 2.7.8 2.8 0 5-2.3 4.9-5.1 0-2.8-2.3-5-5.1-4.9-2.7 0-4.9 2.3-4.9 5v.3L50.7 54c-2.4-1.4-5.4-.7-6.9 1.7-1.4 2.4-.7 5.4 1.7 6.9 1.5.9 3.4 1 4.9.1l8.4 5v.1c0 2.8 2.2 5.1 5 5.1s5.1-2.2 5.1-5c.1-2.8-2.1-5.1-5-5.1.1 0 0 0 0 0zm0 8.5c-1.9 0-3.5-1.5-3.5-3.5v-.1c0-.5-.3-1-.8-1.3h-.1l-.4-.3-7.4-4.4-.6-.3c-.4-.3-1-.3-1.4-.1-1.6 1-3.8.5-4.8-1.2-1-1.6-.5-3.8 1.2-4.8.5-.3 1.2-.5 1.8-.5.6 0 1.3.2 1.8.5s1.1.3 1.6 0l8.4-5c.4-.2.6-.6.6-1v-.1-.4c0-1.9 1.5-3.5 3.5-3.5s3.5 1.5 3.5 3.5-1.5 3.5-3.5 3.5c-.7 0-1.4-.2-2-.6l-.1-.1c-.4-.2-.9-.2-1.2.1l-.5.2-7.3 4.4-.5.3c-.4.2-.7.6-.6 1.1 0 .2 0 .4.1.6 0 .2 0 .4-.1.7-.1.4.1.9.5 1.1l5.7 3.4 2.6 1.6c.5.2 1.1.1 1.5-.2.6-.4 1.3-.6 2-.6 1.9 0 3.5 1.5 3.5 3.4 0 2-1.5 3.6-3.5 3.6z"/></svg>