<svg id="Layer_1" xmlns="http://www.w3.org/2000/svg" height="90" width="90" viewBox="0 0 90 90"><style>.st0{fill:url(#SVGID_1_)}.st1{fill:url(#SVGID_2_)}.st2{fill:url(#SVGID_3_)}.st3{fill:url(#SVGID_4_)}.st4{fill:url(#SVGID_5_)}</style><linearGradient id="SVGID_1_" gradientUnits="userSpaceOnUse" x1=".49" y1="36.995" x2="51.1" y2="36.995"><stop offset="0" stop-color="#6899f8"/><stop offset="1" stop-color="#8975d9"/></linearGradient><path class="st0" d="M37.5 72h-35c0-.3-.1-.5 0-.8V64v-.1c.8-3.3 1.9-5.7 4.9-6.7l13.2-4.5c3.4-1.4 5-6.6 5.4-9.2V43l-.4-.4c-1.9-1.7-4.1-4.7-4.1-7.3 0-1.8-.7-2.3-1-2.5l-.2-.1c-.1 0-.1 0-.2-.2-.8-2-1.3-4-1.6-6.1v-.1c.2-.6.5-1.2 1-1.6l.4-.3.1-8.4c0-5.8 5.2-13.9 13.7-14 3.9.1 6.7.8 8.6 2.4 1.2.9 2 2.2 2.3 3.7l.1.4.3.3c1.2.9 2.6 2.5 2.6 7.1v8.4l.4.3c.5.4.9.9 1 1.6v.1c-.2 2.1-.7 4.2-1.5 6.2-.1.1-.2.3-.3.3H47l-.2.2c-.5.6-.7 1.5-.7 2.3v.3l.1.2c.1 1.1-2.1 5.4-3 5.9-.5.2-.7.8-.5 1.3.2.5.8.7 1.3.5 1.3-.6 3.4-4.6 4-6.6.2-.6.2-1.3 0-1.9 0-.2 0-.3.1-.5.6-.3 1-.7 1.2-1.3.9-2.2 1.4-4.5 1.6-6.9 0-.2 0-.4-.1-.6-.2-.9-.7-1.8-1.4-2.4v-7.4c0-4-1-6.7-3.1-8.4C46 5.6 45 4 43.5 2.8 41.2 1 38 0 33.7 0 23.9 0 18 9.3 18 16v7.4c-.7.7-1.2 1.5-1.4 2.4 0 .2-.1.4-.1.6.2 2.4.8 4.7 1.7 6.9.2.6.7 1.1 1.2 1.3.1.2.1.5.1.7 0 3.1 2.2 6.3 4.3 8.4-.5 2.5-1.9 6.2-4 7.1l-13 4.5c-4.1 1.4-5.4 4.9-6.2 8.1-.1.2-.1.4-.1.6v7.2c0 .7.3 1.3.7 1.8.4.4.8.8 1.3 1h35c.6 0 1-.4 1-1s-.4-1-1-1z"/><linearGradient id="SVGID_2_" gradientUnits="userSpaceOnUse" x1="23.53" y1="67" x2="28.53" y2="67"><stop offset="0" stop-color="#6899f8"/><stop offset="1" stop-color="#8975d9"/></linearGradient><path class="st1" d="M24.5 66c-.5 0-1 .5-1 1 0 .6.4 1 1 1h3c.6 0 1-.4 1-1s-.4-1-1-1c0 0-3.1.1-3 0z"/><linearGradient id="SVGID_3_" gradientUnits="userSpaceOnUse" x1="5.53" y1="67" x2="21.53" y2="67"><stop offset="0" stop-color="#6899f8"/><stop offset="1" stop-color="#8975d9"/></linearGradient><path class="st2" d="M6.5 66c-.6 0-1 .4-1 1s.4 1 1 1h14c.6 0 1-.4 1-1s-.4-1-1-1h-14z"/><linearGradient id="SVGID_4_" gradientUnits="userSpaceOnUse" x1="41.248" y1="65.65" x2="89.505" y2="65.65"><stop offset="0" stop-color="#6899f8"/><stop offset="1" stop-color="#8975d9"/></linearGradient><path class="st3" d="M88.4 64.6c-.1 0-.2.1-.3.1H83c-.2-.1-.3-.1-.5-.1-.1 0-.2.1-.3.1H67.7c-.2-.1-.3-.1-.5-.1-.5.1-.9.5-.9 1v4l-3.9-4L68 60c.4-.4.4-1 0-1.4-.4-.4-1-.4-1.4 0L60.2 65c-.4.4-.4 1 0 1.4l6.4 6.4c.1.1.1.1.2.1l.1.1c.1.1.2.1.4.1.1 0 .3 0 .4-.1h.1c.1 0 .2-.1.2-.2.2-.2.3-.5.3-.7v-5.4h13.3C81 75.3 73.9 82.1 65.1 82c-9.1 0-16.3-7.4-16.3-16.5.1-9.1 7.5-16.3 16.5-16.3 4.1 0 8 1.5 11 4.3.4.4 1 .3 1.4-.1.4-.4.3-1-.1-1.4-3.4-3.1-7.8-4.8-12.3-4.8-10 .1-18.1 8.2-18.2 18.2-.1 10.2 8 18.5 18.2 18.6 9.8 0 17.7-7.7 18.2-17.4h3.9C87 78.6 77.1 88.1 65 88c-12.3-.1-22.2-10.2-22.1-22.5C43 53.2 53 43.2 65.4 43.3c5.6 0 10.9 2.1 15 5.9.4.4 1 .3 1.4-.1.4-.4.3-1-.1-1.4-4.4-4.1-10.3-6.4-16.3-6.4-13.3.1-24 10.8-24.1 24.1-.2 13.5 10.6 24.5 24.1 24.6 13.4-.1 24.2-11 24.1-24.3v-.2c-.1-.6-.5-1-1.1-.9zm-27.5 2z"/><linearGradient id="SVGID_5_" gradientUnits="userSpaceOnUse" x1="67.25" y1="73.05" x2="67.25" y2="73.05"><stop offset="0" stop-color="#6899f8"/><stop offset="1" stop-color="#8975d9"/></linearGradient><path class="st4" d="M67.2 73.1h.1z"/></svg>