<svg id="Logo" xmlns="http://www.w3.org/2000/svg" width="160" height="42" viewBox="0 0 160 42"><defs><style>.cls-1,.cls-2{fill:#fff;fill-rule:evenodd}.cls-2{fill:#6dcff5}</style></defs><path id="Logo-2" data-name="Logo" class="cls-1" d="M11416.5 51.834a9.484 9.484 0 0 0 7.4 3.5c3.9 0 6.2-2.074 6.2-4.838 0-3.01-3.2-3.849-6.5-4.738-3.8-.987-8.1-2.023-8.1-6.663 0-3.652 3-6.614 8.2-6.614a10.525 10.525 0 0 1 8.3 3.5l-1.4 1.826a8.231 8.231 0 0 0-6.9-3.159c-3.5 0-5.7 1.876-5.7 4.344 0 2.714 2.9 3.406 6.1 4.243 4 1.038 8.4 2.172 8.4 7.256 0 3.851-2.8 7.009-8.6 7.009a11.075 11.075 0 0 1-8.9-3.75zm18.4-24.48a1.93 1.93 0 0 1 1.9-1.925 1.867 1.867 0 0 1 1.9 1.925 1.909 1.909 0 0 1-1.9 1.974 1.974 1.974 0 0 1-1.9-1.974zm.7 5.725h2.5v23.838h-2.5V33.079zm34.4 7.157c0-3.356-1.4-5.429-4.7-5.429a8.686 8.686 0 0 0-6.6 4.047v18.063h-2.5V40.236c0-3.356-1.3-5.429-4.6-5.429-2.5 0-5.2 1.925-6.6 4.1v18.01h-2.5V33.079h2.5v3.6c.9-1.53 4.1-4.2 7.4-4.2a5.886 5.886 0 0 1 6.1 4.491 9.58 9.58 0 0 1 7.7-4.491c4.2 0 6.3 2.469 6.3 7.256v17.182h-2.5V40.236zm7.9 25.764V33.079h2.4v3.752a9.99 9.99 0 0 1 8.1-4.344c6.1 0 10.3 4.838 10.3 12.487 0 7.6-4.2 12.536-10.3 12.536a9.889 9.889 0 0 1-8.1-4.441V66h-2.4zm10-31.192a9.354 9.354 0 0 0-7.6 4.245v11.8a9.443 9.443 0 0 0 7.6 4.343c5.2 0 8.1-4.442 8.1-10.216s-2.9-10.173-8.1-10.173zM11501.8 24h2.5v32.92h-2.5V24zm33.6 31.292a9.1 9.1 0 0 0 7-3.307l1.3 1.679a10.683 10.683 0 0 1-8.3 3.849 9.659 9.659 0 0 1-9.4-6.367 9.789 9.789 0 0 1-9.3 6.367c-5.1 0-9.2-2.813-9.2-7.946s4-7.9 8.5-7.9a11.569 11.569 0 0 1 8.6 3.306v-4.737c0-3.554-2.8-5.479-6.8-5.479a10.13 10.13 0 0 0-7.9 3.5l-1.3-1.777a12.144 12.144 0 0 1 9.6-4c3.5 0 7.5 1.43 8.1 5.676a9.68 9.68 0 0 1 8.6-5.675c6.7 0 10.2 5.775 10.2 12.635v.692h-18.1c.3 5.192 3.3 9.481 8.4 9.481zm-18.4-11.6c-4.2 0-6.9 2.419-6.9 5.775 0 3.405 2.7 5.824 6.9 5.824a7.468 7.468 0 0 0 7.6-7.452v-.792a9.769 9.769 0 0 0-7.6-3.356zm17.8-8.982c-5 0-7.6 4.935-7.8 9.081h15.6c0-4.048-2.3-9.083-7.8-9.083zm21 11.7l-7.6 10.513h-3l9.1-12.239-8.6-11.6h3l7.1 9.821 7.2-9.821h2.9l-8.6 11.6 9.1 12.239h-2.9z" transform="translate(-11415 -24)"/><path id="dot" class="cls-2" d="M11571.8 55.734a1.67 1.67 0 0 1 1.6-1.579 1.6 1.6 0 0 1 0 3.208 1.68 1.68 0 0 1-1.6-1.629z" transform="translate(-11415 -24)"/></svg>